<svg height="512pt" viewBox="0 -106 512 512" width="512pt" xmlns="http://www.w3.org/2000/svg"><path d="m150 15h90v60h-90zm0 0" fill="#5a5a5a"/><path d="m195 15h45v60h-45zm0 0" fill="#444"/><path d="m75 240h-30c-24.8125 0-45-20.1875-45-45v-60c0-24.8125 20.1875-45 45-45h30c8.289062 0 15 6.710938 15 15s-6.710938 15-15 15h-30c-8.277344 0-15 6.722656-15 15v60c0 8.277344 6.722656 15 15 15h30c8.289062 0 15 6.710938 15 15s-6.710938 15-15 15zm0 0" fill="#5a5a5a"/><path d="m479.300781 156.597656c-2.699219-4.199218-7.5-6-12.300781-6s-9.601562 1.800782-12.300781 6c-9.898438 14.101563-32.699219 49.203125-32.699219 68.402344 0 24.898438 20.097656 45 45 45s45-20.101562 45-45c0-19.199219-22.800781-54.300781-32.699219-68.402344zm0 0" fill="#fdbf00"/><path d="m300 15c0 8.398438-6.597656 15-15 15h-180c-8.402344 0-15-6.601562-15-15 0-8.402344 6.597656-15 15-15h180c8.402344 0 15 6.597656 15 15zm0 0" fill="#e63950"/><path d="m285 30h-90v-30h90c8.402344 0 15 6.597656 15 15 0 8.398438-6.597656 15-15 15zm0 0" fill="#cc2e43"/><path d="m512 225c0 24.898438-20.097656 45-45 45v-119.402344c4.800781 0 9.601562 1.800782 12.300781 6 9.898438 14.101563 32.699219 49.203125 32.699219 68.402344zm0 0" fill="#ff9f00"/><path d="m497 60h-90c-3 0-6 .898438-8.402344 2.398438l-68.597656 44.703124v-32.101562c0-8.402344-6.597656-15-15-15h-240c-8.402344 0-15 6.597656-15 15v180c0 24.898438 20.097656 45 45 45h180c24.902344 0 45-20.101562 45-45v-23.699219l143.300781-141.300781h23.699219c8.402344 0 15-6.601562 15-15 0-8.402344-6.597656-15-15-15zm0 0" fill="#e63950"/><path d="m512 75c0 8.398438-6.597656 15-15 15h-23.699219l-143.300781 141.300781v23.699219c0 24.898438-20.097656 45-45 45h-90v-240h120c8.402344 0 15 6.597656 15 15v32.101562l68.597656-44.703124c2.402344-1.5 5.402344-2.398438 8.402344-2.398438h90c8.402344 0 15 6.597656 15 15zm0 0" fill="#cc2e43"/></svg>