<?xml version="1.0"?>
<svg xmlns="http://www.w3.org/2000/svg" height="512px" viewBox="0 -91 512 512" width="512px"><path d="m454.652344 186.476562c-9.816406 14.222657-32.652344 49.347657-32.652344 68.523438 0 24.8125 20.1875 45 45 45s45-20.1875 45-45c0-19.175781-22.835938-54.300781-32.652344-68.523438-5.625-8.117187-19.070312-8.117187-24.695312 0zm0 0" fill="#933EC5"/><path d="m497 90h-90c-2.960938 0-5.859375.878906-8.320312 2.519531l-68.679688 44.457031v-31.976562c0-8.289062-6.710938-15-15-15h-240c-8.289062 0-15 6.710938-15 15v15h-15c-24.8125 0-45 20.1875-45 45v60c0 24.8125 20.1875 45 45 45h15v15c0 24.8125 20.1875 45 45 45h180c24.8125 0 45-20.1875 45-45v-23.789062l143.210938-141.210938h23.789062c8.289062 0 15-6.710938 15-15s-6.710938-15-15-15zm-452 150c-8.277344 0-15-6.722656-15-15v-60c0-8.277344 6.722656-15 15-15h15v90zm0 0" fill="#933EC5"/><path d="m90 15c0 8.289062 6.710938 15 15 15h45v30h90v-30h45c8.289062 0 15-6.710938 15-15s-6.710938-15-15-15h-180c-8.289062 0-15 6.710938-15 15zm0 0" fill="#933EC5"/></svg>
