<?xml version="1.0" standalone="no"?>
<!DOCTYPE svg PUBLIC "-//W3C//DTD SVG 20010904//EN"
 "http://www.w3.org/TR/2001/REC-SVG-20010904/DTD/svg10.dtd">
<svg version="1.0" xmlns="http://www.w3.org/2000/svg"
 width="225.000000pt" height="225.000000pt" viewBox="0 0 225.000000 225.000000"
 preserveAspectRatio="xMidYMid meet">
<metadata>
Created by potrace 1.15, written by Peter Selinger 2001-2017
</metadata>
<g transform="translate(0.000000,225.000000) scale(0.100000,-0.100000)"
fill="#000000" stroke="none">
<path d="M780 2092 c-22 -12 -44 -35 -57 -62 -21 -40 -23 -58 -23 -192 l0
-147 -302 -3 c-301 -3 -303 -3 -337 -27 -61 -44 -61 -45 -61 -536 0 -491 0
-492 61 -536 28 -19 48 -24 126 -27 l93 -4 0 -207 0 -206 208 208 207 207 294
0 c273 0 298 1 335 20 66 32 70 44 76 235 l5 170 69 3 70 3 213 -213 213 -213
0 213 0 212 93 0 c107 0 143 16 171 73 15 33 16 80 14 496 -3 447 -4 460 -24
488 -48 65 -20 63 -749 63 -620 0 -662 -1 -695 -18z m1330 -547 l0 -425 -140
0 -140 0 0 -102 0 -103 -103 103 -102 102 -390 2 -390 3 -3 423 -2 422 635 0
635 0 0 -425z m-1410 -207 c0 -117 5 -229 10 -249 5 -19 24 -48 41 -65 l30
-29 242 -5 242 -5 3 -142 3 -143 -318 0 -318 0 -100 -100 c-55 -55 -103 -100
-107 -100 -5 0 -8 45 -8 100 l0 100 -140 0 -140 0 0 425 0 425 280 0 280 0 0
-212z"/>
</g>
</svg>
