<?xml version="1.0" encoding="iso-8859-1"?>
<!-- Generator: Adobe Illustrator 19.0.0, SVG Export Plug-In . SVG Version: 6.00 Build 0)  -->
<svg version="1.1" id="Capa_1" xmlns="http://www.w3.org/2000/svg" xmlns:xlink="http://www.w3.org/1999/xlink" x="0px" y="0px"
	 viewBox="0 0 512 512" style="enable-background:new 0 0 512 512;" xml:space="preserve">
<g>
	<g>
		<path d="M256,388.923c-8.144,0-14.769,6.625-14.769,14.769s6.625,14.769,14.769,14.769s14.769-6.625,14.769-14.769
			S264.144,388.923,256,388.923z"/>
	</g>
</g>
<g>
	<g>
		<path d="M264.908,308.981L256,267.412l-8.908,41.569c-0.794,3.701,0.802,6.372,1.824,7.636C249.938,317.88,252.215,320,256,320
			s6.063-2.119,7.084-3.383C264.105,315.353,265.7,312.681,264.908,308.981z"/>
	</g>
</g>
<g>
	<g>
		<path d="M437.02,74.98C388.667,26.629,324.38,0,256,0S123.333,26.629,74.98,74.98C26.628,123.332,0,187.62,0,256
			s26.629,132.667,74.98,181.02C123.332,485.372,187.62,512,256,512s132.667-26.629,181.02-74.98
			C485.372,388.668,512,324.38,512,256S485.371,123.333,437.02,74.98z M256,448c-24.431,0-44.308-19.876-44.308-44.308
			c0-24.431,19.876-44.308,44.308-44.308s44.308,19.876,44.308,44.308C300.308,428.124,280.431,448,256,448z M218.209,302.792
			l23.349-108.963c1.459-6.81,7.477-11.675,14.441-11.675s12.982,4.865,14.441,11.675l23.349,108.963
			c2.458,11.467-0.361,23.275-7.734,32.395c-7.374,9.121-18.329,14.352-30.056,14.352s-22.683-5.231-30.055-14.352
			C218.571,326.067,215.752,314.259,218.209,302.792z M391.765,391.765c-5.406,5.408-13.964,5.745-19.765,1.014
			c-0.387-0.315-0.761-0.654-1.122-1.014l-48.735-48.736c-5.768-5.768-5.768-15.119,0-20.887c5.767-5.768,15.119-5.767,20.887,0
			l37.819,37.82c21.205-25.377,33.995-56.254,36.945-89.192h-53.485c-8.157,0-14.769-6.613-14.769-14.769
			s6.613-14.769,14.769-14.769h53.475c-3.054-33.723-16.45-64.504-36.993-89.134l-37.762,37.762
			c-2.884,2.884-6.664,4.326-10.443,4.326s-7.56-1.442-10.443-4.326c-5.768-5.767-5.768-15.119,0-20.887l37.762-37.762
			c-24.631-20.543-55.412-33.939-89.135-36.993v53.475c0,8.157-6.613,14.769-14.769,14.769s-14.769-6.613-14.769-14.769V94.217
			c-33.723,3.054-64.504,16.45-89.134,36.993l37.762,37.762c5.768,5.768,5.768,15.119,0,20.887
			c-2.884,2.884-6.665,4.326-10.443,4.326c-3.78,0-7.56-1.441-10.443-4.326l-37.762-37.762
			c-20.544,24.63-33.94,55.411-36.994,89.134h53.475c8.157,0,14.769,6.613,14.769,14.769s-6.613,14.769-14.769,14.769H94.207
			c2.949,32.938,15.74,63.816,36.945,89.191l37.819-37.819c5.767-5.768,15.119-5.768,20.887,0c5.768,5.767,5.768,15.119,0,20.887
			l-48.702,48.702c-0.011,0.011-0.021,0.024-0.031,0.035c-2.884,2.884-6.664,4.326-10.443,4.326c-3.779,0-7.56-1.441-10.443-4.325
			c0,0-0.001-0.001-0.001-0.002C83.971,355.5,64,307.286,64,256c0-52.312,21.038-99.796,55.087-134.46
			c0.355-0.45,0.733-0.889,1.148-1.305c0.415-0.416,0.854-0.792,1.304-1.147C156.203,85.039,203.687,64,256,64
			c52.312,0,99.796,21.038,134.46,55.087c0.45,0.355,0.889,0.733,1.305,1.148c0.415,0.415,0.793,0.855,1.148,1.305
			C426.962,156.204,448,203.688,448,256C448,307.285,428.029,355.5,391.765,391.765z"/>
	</g>
</g>
<g>
</g>
<g>
</g>
<g>
</g>
<g>
</g>
<g>
</g>
<g>
</g>
<g>
</g>
<g>
</g>
<g>
</g>
<g>
</g>
<g>
</g>
<g>
</g>
<g>
</g>
<g>
</g>
<g>
</g>
</svg>
