<?xml version="1.0" standalone="no"?>
<!DOCTYPE svg PUBLIC "-//W3C//DTD SVG 20010904//EN"
 "http://www.w3.org/TR/2001/REC-SVG-20010904/DTD/svg10.dtd">
<svg version="1.0" xmlns="http://www.w3.org/2000/svg"
 width="225.000000pt" height="225.000000pt" viewBox="0 0 225.000000 225.000000"
 preserveAspectRatio="xMidYMid meet">
<metadata>
Created by potrace 1.15, written by Peter Selinger 2001-2017
</metadata>
<g transform="translate(0.000000,225.000000) scale(0.100000,-0.100000)"
fill="#000000" stroke="none">
<path d="M130 2237 c-47 -15 -107 -78 -120 -126 -7 -27 -9 -343 -8 -1003 3
-955 3 -963 24 -1003 11 -22 40 -53 63 -70 l43 -30 699 -3 c467 -2 713 1 739
8 50 13 95 52 120 101 18 34 20 59 20 242 l0 204 237 279 c130 153 249 296
264 317 99 136 -12 321 -181 305 -67 -7 -99 -31 -210 -163 -51 -60 -97 -111
-101 -113 -5 -2 -9 149 -9 338 0 318 -1 343 -20 379 -21 42 -286 302 -335 329
-27 15 -89 17 -610 19 -404 1 -590 -2 -615 -10z m1060 -294 c0 -98 4 -183 8
-189 18 -28 56 -34 216 -34 l166 0 0 -355 0 -355 -145 -170 c-79 -93 -149
-179 -155 -190 -12 -22 -80 -299 -80 -326 0 -27 30 -54 61 -54 24 0 206 72
288 114 l31 17 0 -116 c0 -102 -2 -117 -20 -135 -20 -20 -33 -20 -702 -20
l-682 0 -23 22 -23 21 0 951 0 950 22 23 21 23 509 0 508 0 0 -177z m370 -85
c0 -4 -54 -8 -120 -8 l-120 0 0 121 0 120 120 -112 c66 -62 120 -117 120 -121z
m540 -548 c11 -11 20 -31 20 -44 0 -26 -44 -86 -63 -86 -7 1 -32 19 -57 40
l-44 39 34 36 c39 41 79 46 110 15z m-133 -243 c-4 -12 -350 -426 -357 -426
-3 0 -26 19 -53 43 l-47 42 182 216 182 216 49 -40 c26 -22 46 -45 44 -51z
m-488 -485 c37 -33 42 -41 33 -58 -11 -22 -152 -88 -152 -72 0 52 48 169 69
168 3 0 26 -18 50 -38z"/>
<path d="M285 1834 c-10 -11 -15 -29 -13 -53 5 -60 12 -61 386 -61 330 0 364
3 384 34 14 20 8 63 -10 79 -17 15 -57 17 -375 17 -315 0 -357 -2 -372 -16z"/>
<path d="M293 1442 c-19 -12 -31 -55 -22 -80 5 -12 20 -27 34 -32 16 -6 234
-10 561 -10 l535 0 24 25 c29 28 31 51 9 83 l-15 22 -557 0 c-306 0 -562 -4
-569 -8z"/>
<path d="M290 1042 c-27 -22 -29 -65 -5 -92 18 -19 34 -20 572 -20 540 0 553
0 573 20 27 27 25 56 -5 85 l-24 25 -544 0 c-511 0 -546 -1 -567 -18z"/>
<path d="M286 644 c-27 -26 -24 -71 6 -96 18 -16 51 -18 369 -18 336 0 350 1
369 20 25 25 26 72 2 93 -17 15 -57 17 -375 17 -310 0 -358 -2 -371 -16z"/>
</g>
</svg>
